# xmcd
#
# Track frame offsets:
#	150
#	26114
#	44632
#	77641
#	119330
#	134139
#	146755
#	162867
#	186177
#	201967
#	237210
#	266273
#	286672
#	320191
#	337541
#
# Disc length: 4799 seconds
#
# Revision: 0
# Processed by: cddbd v1.5.2PL0 Copyright (c) Steve Scherf et al.
# Submitted via: EZCDAudioConverter 2.1.7.1
#
DISCID=de12bd0f
DTITLE=V/A - Electricity
DYEAR=2012
DGENRE=MOJO
TTITLE0=Fad Gadget - Back To Nature
TTITLE1=Throbbing Gristle - Hamburger Lady
TTITLE2=Can - ''Oh Yeah''
TTITLE3=Plastikman - Spastik
TTITLE4=Moby - Honey
TTITLE5=Nitzer Ebb - Let Your Body Learn
TTITLE6=Cabaret Voltaire - No Escape
TTITLE7=Add N To (X) - Metal Fingers In My Body
TTITLE8=Renegade Soundwave - Probably A Robbery
TTITLE9=LCD Soundsystem - Losing My Edge
TTITLE10=Photek - Smoke Rings
TTITLE11=Pan Sonic - Urania
TTITLE12=Daft Punk - Rollin' and Scratchin'
TTITLE13=DAF - Der Mussolini
TTITLE14=NON - Intro/Total War
EXTD=
EXTT0=
EXTT1=
EXTT2=
EXTT3=
EXTT4=
EXTT5=
EXTT6=
EXTT7=
EXTT8=
EXTT9=
EXTT10=
EXTT11=
EXTT12=
EXTT13=
EXTT14=
PLAYORDER=
